:FULLY-SPECIFIED
:DEGREES
2725
root 0.917175 15.5461 -2.18865 4884.26 -78.4416 -4881.52
lowerback 4.34576 1.56445 -8.53917
upperback -1.75788 1.54158 -0.159709
thorax -4.5129 0.998881 4.49696
lowerneck -17.1859 0.971285 2.75042
upperneck 22.0879 1.29136 -3.7108
head 9.90035 0.305535 -1.60359
rclavicle -2.22639e-014 -8.15017e-015
rhumerus -20.2957 9.45469 -91.8267
rradius 56.5124
rwrist -7.04282
rhand -33.9335 -13.8834
rfingers 7.12502
rthumb -7.11541 -43.7438
lclavicle -2.22639e-014 -8.15017e-015
lhumerus -37.0507 4.44162 91.0034
lradius 12.9685
lwrist -8.45915
lhand -28.2855 16.716
lfingers 7.12502
lthumb -1.66167 46.6893
rfemur -31.146 2.70159 16.3433
rtibia 46.1524
rfoot -17.4335 -22.1601
rtoes -10.7362
lfemur -2.41864 -3.61343 -33.0934
ltibia 18.867
lfoot -15.7067 12.9407
ltoes -6.53815
2726
root 0.931094 15.5394 -2.19434 4884.87 -78.391 -4882.04
lowerback 4.37808 1.49385 -8.6844
upperback -1.75824 1.43371 -0.176523
thorax -4.52062 0.949268 4.56996
lowerneck -17.1699 0.977217 2.74489
upperneck 21.9428 1.29659 -3.68735
head 9.84577 0.312698 -1.59161
rclavicle -2.94201e-014 2.28602e-015
rhumerus -20.6873 9.39761 -92.0694
rradius 56.298
rwrist -7.07352
rhand -34.1022 -13.9676
rfingers 7.12502
rthumb -7.27821 -43.8224
lclavicle -2.94201e-014 2.28602e-015
lhumerus -36.9613 5.50986 90.1202
lradius 12.4937
lwrist -9.76211
lhand -28.2876 16.7227
lfingers 7.12502
lthumb -1.66367 46.6959
rfemur -31.5 3.19168 16.2327
rtibia 44.0087
rfoot -17.0482 -21.9673
rtoes -10.7727
lfemur -1.37733 -3.58808 -33.3384
ltibia 17.8247
lfoot -15.5324 12.972
ltoes -7.34149
2727
root 0.941689 15.5394 -2.20045 4885.67 -78.298 -4882.7
lowerback 4.26907 1.4285 -8.89153
upperback -1.74554 1.34435 -0.187618
thorax -4.43859 0.906526 4.6848
lowerneck -17.2052 0.997173 2.71977
upperneck 21.8493 1.32601 -3.66214
head 9.81996 0.328665 -1.57329
rclavicle -1.19271e-014 -1.00386e-014
rhumerus -20.9668 9.23356 -92.2869
rradius 55.8847
rwrist -7.04179
rhand -34.2036 -13.742
rfingers 7.12502
rthumb -7.37608 -43.5935
lclavicle -1.19271e-014 -1.00386e-014
lhumerus -36.8265 6.17157 89.539
lradius 12.1757
lwrist -10.4867
lhand -28.4411 16.836
lfingers 7.12502
lthumb -1.81193 46.808
rfemur -31.8421 3.81241 15.9802
rtibia 41.7737
rfoot -16.5189 -21.4888
rtoes -10.5911
lfemur -0.36791 -3.51218 -33.6085
ltibia 16.7133
lfoot -15.3182 12.9335
ltoes -7.70629
2728
root 0.950892 15.5431 -2.2068 4886.21 -78.2854 -4883.13
lowerback 4.2183 1.3825 -8.96966
upperback -1.72402 1.28359 -0.204534
thorax -4.37992 0.874958 4.7174
lowerneck -17.218 0.992317 2.73609
upperneck 21.7075 1.31977 -3.67791
head 9.77207 0.327743 -1.58042
rclavicle 1.35174e-014 5.76476e-015
rhumerus -21.4125 9.01837 -92.441
rradius 55.5253
rwrist -7.13067
rhand -34.1355 -14.1155
rfingers 7.12502
rthumb -7.31036 -43.9692
lclavicle 1.35174e-014 5.76476e-015
lhumerus -36.6528 7.01952 88.8086
lradius 11.8913
lwrist -11.5053
lhand -28.3735 16.9205
lfingers 7.12502
lthumb -1.74663 46.8931
rfemur -32.0375 4.27604 15.8193
rtibia 39.4665
rfoot -15.8513 -20.7125
rtoes -10.2268
lfemur 0.755388 -3.32633 -33.7786
ltibia 15.4942
lfoot -14.9751 12.7303
ltoes -8.65332
2729
root 0.961881 15.5506 -2.21393 4886.49 -78.3232 -4883.25
lowerback 4.15268 1.29835 -9.00196
upperback -1.72917 1.17752 -0.176749
thorax -4.33364 0.822071 4.77501
lowerneck -17.2152 0.987325 2.71205
upperneck 21.5879 1.32429 -3.69481
head 9.72934 0.327726 -1.58007
rclavicle -2.06736e-014 -3.47873e-015
rhumerus -21.823 8.75257 -92.629
rradius 54.9287
rwrist -7.29088
rhand -34.093 -13.7951
rfingers 7.12502
rthumb -7.26935 -43.6502
lclavicle -2.06736e-014 -3.47873e-015
lhumerus -36.5036 7.23761 88.5334
lradius 11.8023
lwrist -11.6507
lhand -28.6823 16.903
lfingers 7.12502
lthumb -2.04492 46.8729
rfemur -32.2338 4.92553 15.6689
rtibia 37.111
rfoot -15.0304 -19.9791
rtoes -10.3221
lfemur 1.93372 -3.20269 -33.8456
ltibia 14.0445
lfoot -14.6273 12.5744
ltoes -8.96908
2730
root 0.967983 15.5577 -2.22201 4886.9 -78.3511 -4883.49
lowerback 4.02109 1.22201 -9.03667
upperback -1.72875 1.08788 -0.168437
thorax -4.24592 0.77493 4.81282
lowerneck -17.2282 0.993909 2.66228
upperneck 21.4836 1.34238 -3.67129
head 9.69509 0.336427 -1.55967
rclavicle 4.77083e-015 9.74045e-015
rhumerus -22.1731 8.2161 -92.8275
rradius 54.0456
rwrist -7.19648
rhand -34.1085 -13.8785
rfingers 7.12502
rthumb -7.28429 -43.7331
lclavicle 4.77083e-015 9.74045e-015
lhumerus -36.3073 7.59246 88.1256
lradius 11.769
lwrist -12.1333
lhand -28.5604 17.0411
lfingers 7.12502
lthumb -1.92714 47.0122
rfemur -32.4063 5.57423 15.4803
rtibia 34.7519
rfoot -14.0049 -19.4759
rtoes -11.6097
lfemur 3.18013 -3.08778 -33.937
ltibia 12.4828
lfoot -14.0922 12.2806
ltoes -9.44507
2731
root 0.971272 15.563 -2.2313 4887.52 -78.3147 -4883.89
lowerback 3.79528 1.15253 -9.12634
upperback -1.74687 1.01197 -0.180061
thorax -4.12727 0.734651 4.86008
lowerneck -17.1861 1.00976 2.6755
upperneck 21.3758 1.37102 -3.71118
head 9.65066 0.347906 -1.57058
rclavicle 7.95139e-015 2.27608e-014
rhumerus -22.7053 7.86025 -92.994
rradius 53.2517
rwrist -7.29933
rhand -33.9291 -14.5361
rfingers 7.12502
rthumb -7.11112 -44.3966
lclavicle 7.95139e-015 2.27608e-014
lhumerus -36.0669 7.39321 88.1035
lradius 11.7655
lwrist -11.8241
lhand -28.9023 16.9048
lfingers 7.12502
lthumb -2.25738 46.8726
rfemur -32.6043 6.51333 15.0933
rtibia 32.4484
rfoot -13.3867 -19.1645
rtoes -13.1223
lfemur 4.5012 -3.15444 -34.1117
ltibia 10.7483
lfoot -13.4803 12.2215
ltoes -10.3144
2732
root 0.976048 15.5716 -2.24152 4887.92 -78.3236 -4884.04
lowerback 3.59254 1.10328 -9.15673
upperback -1.79624 0.964309 -0.1574
thorax -4.05804 0.710705 4.90687
lowerneck -17.1258 0.992788 2.6355
upperneck 21.2834 1.36866 -3.7525
head 9.60682 0.340198 -1.57739
rclavicle -6.36111e-015 -1.13307e-014
rhumerus -23.1128 7.28033 -93.082
rradius 52.0472
rwrist -7.22869
rhand -33.914 -14.3387
rfingers 7.12502
rthumb -7.09653 -44.1998
lclavicle -6.36111e-015 -1.13307e-014
lhumerus -35.8471 7.37423 87.9779
lradius 11.8525
lwrist -11.8385
lhand -28.9328 16.7441
lfingers 7.12502
lthumb -2.28685 46.7116
rfemur -32.8393 7.46478 14.7387
rtibia 30.2769
rfoot -13.3866 -18.8535
rtoes -14.2346
lfemur 5.9753 -2.82044 -34.139
ltibia 8.64481
lfoot -12.6588 11.6387
ltoes -10.8099
2733
root 0.977561 15.5779 -2.2532 4888.65 -78.4056 -4884.53
lowerback 3.35282 0.999809 -9.18614
upperback -1.83454 0.847408 -0.164861
thorax -3.94471 0.649301 4.92679
lowerneck -17.168 0.995017 2.54866
upperneck 21.3028 1.38077 -3.69111
head 9.62093 0.345304 -1.54011
rclavicle -4.45278e-014 1.8487e-014
rhumerus -23.7439 6.91652 -93.2057
rradius 51.0965
rwrist -7.41991
rhand -33.8787 -14.4056
rfingers 7.12502
rthumb -7.06252 -44.2678
lclavicle -4.45278e-014 1.8487e-014
lhumerus -35.5945 7.17403 87.9318
lradius 12.063
lwrist -11.5256
lhand -29.0139 16.7811
lfingers 7.12502
lthumb -2.3651 46.7477
rfemur -33.0771 8.62601 14.239
rtibia 28.2973
rfoot -13.7971 -18.8488
rtoes -14.4064
lfemur 7.7942 -2.58041 -34.1662
ltibia 5.94114
lfoot -11.5786 11.0345
ltoes -11.6455
2734
root 0.976915 15.5866 -2.26689 4889.4 -78.4264 -4885.05
lowerback 3.12424 0.94494 -9.29005
upperback -1.8804 0.79032 -0.164491
thorax -3.8568 0.620861 4.99168
lowerneck -17.1071 0.976917 2.5191
upperneck 21.2283 1.37029 -3.7179
head 9.583 0.336167 -1.54491
rclavicle 7.95139e-015 1.98785e-016
rhumerus -24.2408 6.31911 -93.2531
rradius 49.7802
rwrist -7.23835
rhand -33.6987 -14.8676
rfingers 7.12502
rthumb -6.88872 -44.7355
lclavicle 7.95139e-015 1.98785e-016
lhumerus -35.3395 6.47442 88.2181
lradius 12.3661
lwrist -10.858
lhand -29.0618 16.8252
lfingers 7.12502
lthumb -2.41139 46.7913
rfemur -33.4236 9.87522 13.6479
rtibia 26.5912
rfoot -14.4037 -18.9046
rtoes -14.2977
lfemur 11.4103 -2.29391 -34.1785
ltibia 6.36111e-015
lfoot -8.91435 10.2079
ltoes -12.8397
2735
root 0.972871 15.5952 -2.28021 4890.15 -78.5983 -4885.56
lowerback 2.88163 0.833311 -9.276
upperback -1.92205 0.6666 -0.14363
thorax -3.74347 0.555548 5.01604
lowerneck -17.0887 0.978397 2.4842
upperneck 21.2135 1.38871 -3.74717
head 9.57506 0.338567 -1.54667
rclavicle -1.59028e-015 -1.03368e-014
rhumerus -24.78 5.57948 -93.2541
rradius 48.4043
rwrist -6.9341
rhand -33.4706 -15.1026
rfingers 7.12502
rthumb -6.66849 -44.9776
lclavicle -1.59028e-015 -1.03368e-014
lhumerus -35.0255 5.69311 88.5501
lradius 12.7054
lwrist -9.68501
lhand -29.2925 16.7395
lfingers 7.12502
lthumb -2.63416 46.7029
rfemur -33.7774 11.2985 13.0134
rtibia 25.1029
rfoot -15.1277 -19.6136
rtoes -14.5954
lfemur 11.7702 -2.1366 -34.1233
ltibia 6.36111e-015
lfoot -8.95269 9.61255
ltoes -13.727
2736
root 0.967376 15.599 -2.29304 4891.87 -78.7347 -4887.09
lowerback 2.70709 0.738428 -9.39351
upperback -1.98945 0.545255 -0.213804
thorax -3.69784 0.496286 5.01695
lowerneck -17.0932 0.980363 2.49986
upperneck 21.2745 1.38898 -3.75659
head 9.59752 0.33778 -1.55336
rclavicle 3.18055e-015 -2.06736e-014
rhumerus -25.3219 4.74913 -93.2589
rradius 46.8445
rwrist -6.69045
rhand -33.668 -15.3145
rfingers 7.12502
rthumb -6.85907 -45.1834
lclavicle 3.18055e-015 -2.06736e-014
lhumerus -34.7439 4.91756 88.8084
lradius 13.0544
lwrist -8.85662
lhand -29.3091 16.734
lfingers 7.12502
lthumb -2.65021 46.6973
rfemur -34.147 12.4136 12.2543
rtibia 23.9178
rfoot -15.9583 -20.4494
rtoes -15.3823
lfemur 12.1801 -2.04219 -34.262
ltibia 2.54444e-014
lfoot -8.91728 9.00342
ltoes -14.5051
